<svg xmlns="http://www.w3.org/2000/svg" viewBox="0 0 180 180">
  <!-- rounded-lg pada size-8 (32px) = radius 14px → skala ke 180px = rx≈79 -->
  <rect width="180" height="180" rx="79" ry="79" fill="oklch(0.48 0.16 264)"/>

  <!-- Boxes icon (Lucide) 24x24 → scale 4.25 → 102px, offset 39 untuk center -->
  <g transform="translate(39,39)" fill="none" stroke="white" stroke-width="9" stroke-linecap="round" stroke-linejoin="round">
    <g transform="scale(4.25)">
      <path d="M2.97 12.92A2 2 0 0 0 2 14.63v3.24a2 2 0 0 0 .97 1.71l3 1.8a2 2 0 0 0 2.06 0L12 19v-5.5l-5-3-4.03 2.42Z"/>
      <path d="M7 16.5l-4.74-2.85"/>
      <path d="M7 16.5l5-3"/>
      <path d="M7 16.5V21"/>
      <path d="M12 13.5V19l3.97 2.38a2 2 0 0 0 2.06 0l3-1.8a2 2 0 0 0 .97-1.71v-3.24a2 2 0 0 0-.97-1.71L17 10.5l-5 3Z"/>
      <path d="M17 16.5l-5-3"/>
      <path d="M17 16.5l4.74-2.85"/>
      <path d="M17 16.5V21"/>
      <path d="M7.97 4.42A2 2 0 0 0 7 6.13v4.37l5 3 5-3V6.13a2 2 0 0 0-.97-1.71l-3-1.8a2 2 0 0 0-2.06 0l-3 1.8Z"/>
      <path d="M12 8l-5-3"/>
      <path d="M12 8l5-3"/>
    </g>
  </g>
</svg>
